<svg width="381" height="91" viewBox="0 0 381 91" fill="none" xmlns="http://www.w3.org/2000/svg">
<path d="M0 35.3924V0.455697C4.2694 0.151899 8.38387 0 12.3434 0C17.3703 0 20.8822 1.33333 22.8792 4C24.9106 6.63291 25.9263 11.2743 25.9263 17.924C25.9263 24.5738 24.9106 29.2321 22.8792 31.8987C20.8822 34.5316 17.3703 35.8481 12.3434 35.8481C8.45273 35.8481 4.33827 35.6962 0 35.3924ZM3.35699 3.03797V32.8101C6.80006 32.8776 9.79553 32.9114 12.3434 32.9114C16.0963 32.9114 18.6959 31.8143 20.142 29.6203C21.6225 27.4262 22.3627 23.5274 22.3627 17.924C22.3627 12.3207 21.6225 8.42194 20.142 6.22785C18.6959 4 16.0963 2.88608 12.3434 2.88608C11.7236 2.88608 8.72818 2.93671 3.35699 3.03797Z" fill="white"/>
<path d="M30.6834 0.556961H32.1811C32.9042 0.556961 33.2657 0.911392 33.2657 1.62025V4.55696C33.2657 5.26582 32.9042 5.62025 32.1811 5.62025H30.6834C29.9603 5.62025 29.5988 5.26582 29.5988 4.55696V1.62025C29.5988 0.911392 29.9603 0.556961 30.6834 0.556961ZM33.0591 35.3924H29.8054V10.8861H33.0591V35.3924Z" fill="white"/>
<path d="M49.4454 25.0127L41.8018 23.5949C39.8393 23.2236 38.4104 22.5316 37.5152 21.519C36.6544 20.4726 36.224 18.9367 36.224 16.9114C36.224 14.1435 36.9299 12.3376 38.3415 11.4937C39.7876 10.616 42.2838 10.1941 45.8302 10.2278C49.6176 10.2954 53.0262 10.5485 56.0561 10.9873L55.7462 13.3165C51.6146 13.1139 48.4469 13.0127 46.2434 13.0127C43.4889 12.9789 41.6641 13.1814 40.7689 13.6203C39.8737 14.0253 39.4261 15.1224 39.4261 16.9114C39.4261 18.2954 39.7188 19.2574 40.3041 19.7975C40.8894 20.3376 41.8707 20.7426 43.2479 21.0127L50.9432 22.4304C52.9401 22.8354 54.4034 23.5443 55.3331 24.557C56.2627 25.5359 56.7275 27.0211 56.7275 29.0127C56.7275 31.8819 55.9356 33.7553 54.3518 34.6329C52.8024 35.5105 50.134 35.9494 46.3467 35.9494C42.938 35.9494 39.7532 35.73 36.7921 35.2911L37.0504 32.9114C39.7704 33.1477 42.6798 33.2489 45.7786 33.2152C48.8429 33.1814 50.8915 32.9114 51.9244 32.4051C52.9918 31.865 53.5255 30.7342 53.5255 29.0127C53.5255 27.6962 53.1984 26.7679 52.5442 26.2278C51.89 25.6878 50.8571 25.2827 49.4454 25.0127Z" fill="white"/>
<path d="M77.9996 32.6582L78.3611 34.8861C75.8133 35.6287 73.0932 36 70.2011 36C65.8972 36 62.8673 35.038 61.1114 33.1139C59.3554 31.1899 58.4774 27.865 58.4774 23.1392C58.4774 18.4135 59.3554 15.0886 61.1114 13.1646C62.8673 11.2067 65.8972 10.2278 70.2011 10.2278C73.2654 10.2278 75.8305 10.5992 77.8963 11.3418L77.3799 13.4177C75.555 13.1477 73.3343 13.0127 70.7175 13.0127C67.4122 13.0127 65.1053 13.7384 63.797 15.1899C62.523 16.6076 61.8861 19.2574 61.8861 23.1392C61.8861 27.0211 62.523 29.6709 63.797 31.0886C65.1053 32.5063 67.4122 33.2152 70.7175 33.2152C73.6097 33.2152 76.0371 33.0295 77.9996 32.6582Z" fill="white"/>
<path d="M81.5406 13.1646C83.2966 11.2067 86.2748 10.2278 90.4753 10.2278C94.6759 10.2278 97.6369 11.2067 99.3585 13.1646C101.08 15.0886 101.941 18.4135 101.941 23.1392C101.941 27.865 101.08 31.1899 99.3585 33.1139C97.6369 35.038 94.6759 36 90.4753 36C86.2748 36 83.2966 35.038 81.5406 33.1139C79.8191 31.1561 78.9583 27.8312 78.9583 23.1392C78.9583 18.4135 79.8191 15.0886 81.5406 13.1646ZM96.7762 15.1899C95.6055 13.7384 93.5052 13.0127 90.4753 13.0127C87.4454 13.0127 85.3452 13.7384 84.1745 15.1899C83.0039 16.6413 82.4186 19.2911 82.4186 23.1392C82.4186 26.9873 83.0039 29.6371 84.1745 31.0886C85.3452 32.5401 87.4454 33.2658 90.4753 33.2658C93.5052 33.2658 95.6055 32.5401 96.7762 31.0886C97.9468 29.6371 98.5321 26.9873 98.5321 23.1392C98.5321 19.2911 97.9468 16.6413 96.7762 15.1899Z" fill="white"/>
<path d="M126.399 10.8861L116.844 34.5823C116.638 35.1224 116.225 35.3924 115.605 35.3924H112.558C111.938 35.3924 111.525 35.1224 111.318 34.5823L101.764 10.8861H105.276L112.093 28.6076C112.299 29.1139 112.575 29.8734 112.919 30.8861C113.298 31.8987 113.573 32.6076 113.746 33.0127H114.417L116.121 28.557L122.939 10.8861H126.399Z" fill="white"/>
<path d="M142.182 24.7089H129.684C129.89 27.9494 130.648 30.1772 131.956 31.3924C133.264 32.6076 135.399 33.2152 138.36 33.2152C140.942 33.2152 143.817 33.0127 146.985 32.6076L147.347 34.7848C145.212 35.5949 142.061 36 137.895 36C133.695 36 130.699 35.0211 128.909 33.0633C127.153 31.0717 126.275 27.73 126.275 23.038C126.275 18.3122 127.136 15.0042 128.857 13.1139C130.579 11.1899 133.454 10.2278 137.482 10.2278C141.028 10.2278 143.645 10.8692 145.332 12.1519C147.019 13.4008 147.88 15.308 147.915 17.8734C147.983 22.4304 146.073 24.7089 142.182 24.7089ZM129.684 22.1772H141.407C143.611 22.1772 144.678 20.7595 144.609 17.924C144.575 16.2025 144.007 14.9536 142.905 14.1772C141.803 13.4008 140.047 13.0127 137.637 13.0127C134.71 13.0127 132.662 13.6878 131.491 15.038C130.321 16.3544 129.718 18.7342 129.684 22.1772Z" fill="white"/>
<path d="M166 10.2278L165.587 13.2658H164.347C162.901 13.2658 161.438 13.5696 159.957 14.1772C158.477 14.7511 156.583 15.7131 154.276 17.0633V35.3924H150.971V10.8861H153.502L153.863 14.9367C157.96 11.7975 161.645 10.2278 164.915 10.2278H166Z" fill="white"/>
<path d="M34.8773 1.84175H43.9196C46.1751 1.84175 47.3438 3.00819 47.4258 5.34106L49.0866 44.2019H40.2289L38.8141 9.14734H37.7684L31.3712 35.3615C30.9611 37.367 29.6898 38.3697 27.5574 38.3697H21.4062C19.2738 38.3697 18.0025 37.367 17.5925 35.3615L11.1337 9.14734H10.088L8.85774 44.2019H0L1.5378 5.34106C1.66083 3.00819 2.82956 1.84175 5.04399 1.84175H14.0863C16.0957 1.84175 17.3259 2.84448 17.777 4.84994L22.944 25.9686C23.2721 27.3192 23.6411 29.3042 24.0512 31.9236H24.8509C24.8919 31.719 25.0354 30.8799 25.2815 29.4065C25.5685 27.9331 25.7941 26.7872 25.9581 25.9686L31.0636 4.84994C31.5557 2.84448 32.8269 1.84175 34.8773 1.84175Z" transform="translate(47 46)" fill="white"/>
<path d="M55.3075 0.552525H59.3673C61.1307 0.552525 62.0123 1.43247 62.0123 3.19236V6.5075C62.0123 8.2674 61.1307 9.14734 59.3673 9.14734H55.3075C53.5442 9.14734 52.6625 8.2674 52.6625 6.5075V3.19236C52.6625 1.43247 53.5442 0.552525 55.3075 0.552525ZM61.8893 44.2019H52.847V13.9359H61.8893V44.2019Z" transform="translate(47 46)" fill="white"/>
<path d="M77.4745 30.1432H74.5834C74.8705 31.985 75.014 33.4993 75.014 34.6862V44.2019H65.9102V1.22783H75.014V18.97C75.014 20.9754 74.8705 22.8172 74.5834 24.4952H77.413L84.9174 13.9359H95.1284L87.2549 24.4338C86.5988 25.5389 85.6556 26.5007 84.4253 27.3192V27.442C85.4505 28.1378 86.3937 29.2224 87.2549 30.6958L96.1741 44.2019H85.9631L77.4745 30.1432Z" transform="translate(47 46)" fill="white"/>
<path d="M114.633 32.1078H103.684C103.971 34.3179 104.627 35.8117 105.652 36.5894C106.718 37.3261 108.461 37.6944 110.881 37.6944C114.12 37.6944 117.893 37.4693 122.199 37.0191L123.06 42.6671C119.903 44.1814 115.494 44.9386 109.835 44.9386C104.135 44.9386 100.075 43.7108 97.6557 41.2551C95.2362 38.7995 94.0265 34.7476 94.0265 29.0996C94.0265 23.1651 95.1952 19.0109 97.5327 16.6371C99.9112 14.2633 103.889 13.0764 109.466 13.0764C114.51 13.0764 118.16 13.9563 120.415 15.7162C122.671 17.4352 123.819 20.075 123.86 23.6357C123.86 26.4598 123.122 28.588 121.645 30.0205C120.21 31.412 117.873 32.1078 114.633 32.1078ZM103.499 26.6439H112.111C113.218 26.6439 113.956 26.3779 114.325 25.8458C114.736 25.3138 114.941 24.5362 114.941 23.513C114.941 22.0805 114.572 21.0982 113.833 20.5662C113.095 19.9932 111.742 19.7067 109.774 19.7067C107.436 19.7067 105.837 20.1774 104.976 21.1187C104.114 22.0191 103.622 23.8608 103.499 26.6439Z" transform="translate(47 46)" fill="white"/>
<path d="M138.768 5.77081C141.434 2.61937 146.17 1.04366 152.978 1.04366C159.785 1.04366 164.521 2.61937 167.187 5.77081C169.852 8.88131 171.185 14.6317 171.185 23.0218C171.185 31.412 169.852 37.1828 167.187 40.3342C164.521 43.4447 159.785 45 152.978 45C146.17 45 141.434 43.4447 138.768 40.3342C136.144 37.1828 134.832 31.412 134.832 23.0218C134.832 14.6317 136.144 8.88131 138.768 5.77081ZM159.498 11.603C158.35 9.59755 156.176 8.59482 152.978 8.59482C149.779 8.59482 147.585 9.59755 146.396 11.603C145.248 13.6085 144.674 17.4147 144.674 23.0218C144.674 28.6289 145.248 32.4352 146.396 34.4407C147.585 36.4461 149.779 37.4488 152.978 37.4488C156.176 37.4488 158.35 36.4461 159.498 34.4407C160.687 32.4352 161.282 28.6289 161.282 23.0218C161.282 17.4147 160.687 13.6085 159.498 11.603Z" transform="translate(47 46)" fill="white"/>
<path d="M183.155 1.22783V34.3179C183.155 36.3643 184.303 37.3875 186.6 37.3875H189.06L190.106 43.7108C188.548 44.5293 186.128 44.9386 182.848 44.9386C180.141 44.9386 178.009 44.2224 176.45 42.7899C174.892 41.3165 174.113 39.2497 174.113 36.5894V1.22783H183.155Z" transform="translate(47 46)" fill="white"/>
<path d="M219.518 1.22783V44.2019H212.321L211.583 39.7817C208.671 43.2196 204.816 44.9386 200.019 44.9386C196.246 44.9386 193.498 43.588 191.776 40.8868C190.095 38.1446 189.254 34.1132 189.254 28.7926C189.254 22.9809 190.197 18.9086 192.083 16.5757C193.97 14.2428 196.902 13.0764 200.88 13.0764C204.775 13.0764 208.056 13.9768 210.722 15.7776C210.517 13.5266 210.414 11.4188 210.414 9.4543V1.22783H219.518ZM210.414 34.9932V20.9959C207.667 20.2183 205.514 19.8295 203.955 19.8295C201.905 19.8295 200.49 20.4025 199.711 21.5484C198.973 22.6944 198.604 25.0887 198.604 28.7312C198.604 32.2101 198.973 34.543 199.711 35.7299C200.449 36.8759 201.761 37.4488 203.648 37.4488C204.919 37.4488 206.006 37.2851 206.908 36.9577C207.81 36.5894 208.979 35.9345 210.414 34.9932Z" transform="translate(47 46)" fill="white"/>
<path d="M244.968 6.63029H239.248C237.731 6.63029 236.664 6.91678 236.049 7.48977C235.475 8.06276 235.188 9.08595 235.188 10.5593V13.9359H243.554V20.0136H235.188V44.2019H226.023V20.0136H220.733V14.2428L226.023 13.9359V9.33152C226.023 3.11051 229.344 0 235.988 0C240.294 0 243.574 0.20464 245.83 0.613919L244.968 6.63029Z" transform="translate(47 46)" fill="white"/>
<path d="M247.201 0.552525H251.261C253.024 0.552525 253.906 1.43247 253.906 3.19236V6.5075C253.906 8.2674 253.024 9.14734 251.261 9.14734H247.201C245.438 9.14734 244.556 8.2674 244.556 6.5075V3.19236C244.556 1.43247 245.438 0.552525 247.201 0.552525ZM253.783 44.2019H244.741V13.9359H253.783V44.2019Z" transform="translate(47 46)" fill="white"/>
<path d="M277.119 32.1078H266.169C266.457 34.3179 267.113 35.8117 268.138 36.5894C269.204 37.3261 270.947 37.6944 273.366 37.6944C276.606 37.6944 280.379 37.4693 284.685 37.0191L285.546 42.6671C282.388 44.1814 277.98 44.9386 272.321 44.9386C266.621 44.9386 262.561 43.7108 260.141 41.2551C257.722 38.7995 256.512 34.7476 256.512 29.0996C256.512 23.1651 257.681 19.0109 260.018 16.6371C262.397 14.2633 266.375 13.0764 271.952 13.0764C276.996 13.0764 280.645 13.9563 282.901 15.7162C285.156 17.4352 286.304 20.075 286.345 23.6357C286.345 26.4598 285.607 28.588 284.131 30.0205C282.696 31.412 280.358 32.1078 277.119 32.1078ZM265.985 26.6439H274.597C275.704 26.6439 276.442 26.3779 276.811 25.8458C277.221 25.3138 277.426 24.5362 277.426 23.513C277.426 22.0805 277.057 21.0982 276.319 20.5662C275.581 19.9932 274.228 19.7067 272.259 19.7067C269.922 19.7067 268.322 20.1774 267.461 21.1187C266.6 22.0191 266.108 23.8608 265.985 26.6439Z" transform="translate(47 46)" fill="white"/>
<path d="M297.637 1.22783V34.3179C297.637 36.3643 298.785 37.3875 301.082 37.3875H303.542L304.588 43.7108C303.03 44.5293 300.61 44.9386 297.33 44.9386C294.623 44.9386 292.491 44.2224 290.932 42.7899C289.374 41.3165 288.595 39.2497 288.595 36.5894V1.22783H297.637Z" transform="translate(47 46)" fill="white"/>
<path d="M334 1.22783V44.2019H326.803L326.065 39.7817C323.153 43.2196 319.299 44.9386 314.501 44.9386C310.728 44.9386 307.98 43.588 306.258 40.8868C304.577 38.1446 303.736 34.1132 303.736 28.7926C303.736 22.9809 304.679 18.9086 306.566 16.5757C308.452 14.2428 311.384 13.0764 315.362 13.0764C319.258 13.0764 322.538 13.9768 325.204 15.7776C324.999 13.5266 324.896 11.4188 324.896 9.4543V1.22783H334ZM324.896 34.9932V20.9959C322.149 20.2183 319.996 19.8295 318.437 19.8295C316.387 19.8295 314.972 20.4025 314.193 21.5484C313.455 22.6944 313.086 25.0887 313.086 28.7312C313.086 32.2101 313.455 34.543 314.193 35.7299C314.931 36.8759 316.244 37.4488 318.13 37.4488C319.401 37.4488 320.488 37.2851 321.39 36.9577C322.292 36.5894 323.461 35.9345 324.896 34.9932Z" transform="translate(47 46)" fill="white"/>
</svg>
