<svg width="709" height="62" viewBox="0 0 709 62" version="1.1" xmlns="http://www.w3.org/2000/svg" xmlns:xlink="http://www.w3.org/1999/xlink">
<g id="Canvas" fill="none">
<g id="Group">
<g id="Discover">
<path d="M 0 57.318L 0 0.738001C 6.77867 0.246001 13.3113 0 19.598 0C 27.5793 0 33.1553 2.15933 36.326 6.478C 39.5513 10.742 41.164 18.2587 41.164 29.028C 41.164 39.7973 39.5513 47.3413 36.326 51.66C 33.1553 55.924 27.5793 58.056 19.598 58.056C 13.4207 58.056 6.888 57.81 0 57.318ZM 5.33 4.92L 5.33 53.136C 10.7967 53.2453 15.5527 53.3 19.598 53.3C 25.5567 53.3 29.684 51.5233 31.98 47.97C 34.3307 44.4167 35.506 38.1027 35.506 29.028C 35.506 19.9533 34.3307 13.6393 31.98 10.086C 29.684 6.478 25.5567 4.674 19.598 4.674C 18.614 4.674 13.858 4.756 5.33 4.92Z" transform="translate(0.626007 1.68201)" fill="#0D3947"/>
<path d="M 48.717 0.901999L 51.095 0.901999C 52.243 0.901999 52.817 1.476 52.817 2.624L 52.817 7.38C 52.817 8.528 52.243 9.102 51.095 9.102L 48.717 9.102C 47.569 9.102 46.995 8.528 46.995 7.38L 46.995 2.624C 46.995 1.476 47.569 0.901999 48.717 0.901999ZM 52.489 57.318L 47.323 57.318L 47.323 17.63L 52.489 17.63L 52.489 57.318Z" transform="translate(0.626007 1.68201)" fill="#0D3947"/>
<path d="M 78.506 40.508L 66.37 38.212C 63.254 37.6107 60.9854 36.49 59.564 34.85C 58.1974 33.1553 57.514 30.668 57.514 27.388C 57.514 22.9053 58.6347 19.9807 60.876 18.614C 63.172 17.1927 67.1354 16.5093 72.766 16.564C 78.7794 16.6733 84.1914 17.0833 89.002 17.794L 88.51 21.566C 81.95 21.238 76.9207 21.074 73.422 21.074C 69.0487 21.0193 66.1514 21.3473 64.73 22.058C 63.3087 22.714 62.598 24.4907 62.598 27.388C 62.598 29.6293 63.0627 31.1873 63.992 32.062C 64.9214 32.9367 66.4794 33.5927 68.666 34.03L 80.884 36.326C 84.0547 36.982 86.378 38.13 87.854 39.77C 89.33 41.3553 90.068 43.7607 90.068 46.986C 90.068 51.6327 88.8107 54.6667 86.296 56.088C 83.836 57.5093 79.5994 58.22 73.586 58.22C 68.174 58.22 63.1174 57.8647 58.416 57.154L 58.826 53.3C 63.1447 53.6827 67.764 53.8467 72.684 53.792C 77.5494 53.7373 80.802 53.3 82.442 52.48C 84.1367 51.6053 84.984 49.774 84.984 46.986C 84.984 44.854 84.4647 43.3507 83.426 42.476C 82.3874 41.6013 80.7474 40.9453 78.506 40.508Z" transform="translate(0.626007 1.68201)" fill="#0D3947"/>
<path d="M 123.842 52.89L 124.416 56.498C 120.371 57.7007 116.052 58.302 111.46 58.302C 104.627 58.302 99.8164 56.744 97.0284 53.628C 94.2404 50.512 92.8464 45.1273 92.8464 37.474C 92.8464 29.8207 94.2404 24.436 97.0284 21.32C 99.8164 18.1493 104.627 16.564 111.46 16.564C 116.326 16.564 120.398 17.1653 123.678 18.368L 122.858 21.73C 119.961 21.2927 116.435 21.074 112.28 21.074C 107.032 21.074 103.37 22.2493 101.292 24.6C 99.2698 26.896 98.2584 31.1873 98.2584 37.474C 98.2584 43.7607 99.2698 48.052 101.292 50.348C 103.37 52.644 107.032 53.792 112.28 53.792C 116.872 53.792 120.726 53.4913 123.842 52.89Z" transform="translate(0.626007 1.68201)" fill="#0D3947"/>
<path d="M 129.465 21.32C 132.253 18.1493 136.981 16.564 143.651 16.564C 150.32 16.564 155.021 18.1493 157.755 21.32C 160.488 24.436 161.855 29.8207 161.855 37.474C 161.855 45.1273 160.488 50.512 157.755 53.628C 155.021 56.744 150.32 58.302 143.651 58.302C 136.981 58.302 132.253 56.744 129.465 53.628C 126.731 50.4573 125.365 45.0727 125.365 37.474C 125.365 29.8207 126.731 24.436 129.465 21.32ZM 153.655 24.6C 151.796 22.2493 148.461 21.074 143.651 21.074C 138.84 21.074 135.505 22.2493 133.647 24.6C 131.788 26.9507 130.859 31.242 130.859 37.474C 130.859 43.706 131.788 47.9973 133.647 50.348C 135.505 52.6987 138.84 53.874 143.651 53.874C 148.461 53.874 151.796 52.6987 153.655 50.348C 155.513 47.9973 156.443 43.706 156.443 37.474C 156.443 31.242 155.513 26.9507 153.655 24.6Z" transform="translate(0.626007 1.68201)" fill="#0D3947"/>
<path d="M 200.687 17.63L 185.517 56.006C 185.189 56.8807 184.533 57.318 183.549 57.318L 178.711 57.318C 177.727 57.318 177.071 56.8807 176.743 56.006L 161.573 17.63L 167.149 17.63L 177.973 46.33C 178.301 47.15 178.739 48.38 179.285 50.02C 179.887 51.66 180.324 52.808 180.597 53.464L 181.663 53.464L 184.369 46.248L 195.193 17.63L 200.687 17.63Z" transform="translate(0.626007 1.68201)" fill="#0D3947"/>
<path d="M 225.747 40.016L 205.903 40.016C 206.231 45.264 207.433 48.872 209.511 50.84C 211.588 52.808 214.977 53.792 219.679 53.792C 223.779 53.792 228.343 53.464 233.373 52.808L 233.947 56.334C 230.557 57.646 225.555 58.302 218.941 58.302C 212.271 58.302 207.515 56.7167 204.673 53.546C 201.885 50.3207 200.491 44.9087 200.491 37.31C 200.491 29.6567 201.857 24.2993 204.591 21.238C 207.324 18.122 211.889 16.564 218.285 16.564C 223.915 16.564 228.07 17.6027 230.749 19.68C 233.427 21.7027 234.794 24.7913 234.849 28.946C 234.958 36.326 231.924 40.016 225.747 40.016ZM 205.903 35.916L 224.517 35.916C 228.015 35.916 229.71 33.62 229.601 29.028C 229.546 26.24 228.644 24.2173 226.895 22.96C 225.145 21.7027 222.357 21.074 218.531 21.074C 213.884 21.074 210.631 22.1673 208.773 24.354C 206.914 26.486 205.957 30.34 205.903 35.916Z" transform="translate(0.626007 1.68201)" fill="#0D3947"/>
<path d="M 263.563 16.564L 262.907 21.484L 260.939 21.484C 258.643 21.484 256.32 21.976 253.969 22.96C 251.619 23.8893 248.612 25.4473 244.949 27.634L 244.949 57.318L 239.701 57.318L 239.701 17.63L 243.719 17.63L 244.293 24.19C 250.799 19.106 256.648 16.564 261.841 16.564L 263.563 16.564Z" transform="translate(0.626007 1.68201)" fill="#0D3947"/>
</g>
<g id="Mike Oldfield">
<path d="M 46.494 2.46L 58.548 2.46C 61.5547 2.46 63.1127 4.018 63.222 7.134L 65.436 59.04L 53.628 59.04L 51.742 12.218L 50.348 12.218L 41.82 47.232C 41.2733 49.9107 39.5787 51.25 36.736 51.25L 28.536 51.25C 25.6933 51.25 23.9987 49.9107 23.452 47.232L 14.842 12.218L 13.448 12.218L 11.808 59.04L 0 59.04L 2.05 7.134C 2.214 4.018 3.772 2.46 6.724 2.46L 18.778 2.46C 21.4567 2.46 23.0967 3.79934 23.698 6.478L 30.586 34.686C 31.0233 36.49 31.5153 39.1413 32.062 42.64L 33.128 42.64C 33.1827 42.3667 33.374 41.246 33.702 39.278C 34.0847 37.31 34.3853 35.7793 34.604 34.686L 41.41 6.478C 42.066 3.79934 43.7607 2.46 46.494 2.46Z" transform="translate(263.674 0.959991)" fill="#0D3947"/>
<path d="M 73.7289 0.738001L 79.1409 0.738001C 81.4916 0.738001 82.6669 1.91333 82.6669 4.264L 82.6669 8.692C 82.6669 11.0427 81.4916 12.218 79.1409 12.218L 73.7289 12.218C 71.3782 12.218 70.2029 11.0427 70.2029 8.692L 70.2029 4.264C 70.2029 1.91333 71.3782 0.738001 73.7289 0.738001ZM 82.5029 59.04L 70.4489 59.04L 70.4489 18.614L 82.5029 18.614L 82.5029 59.04Z" transform="translate(263.674 0.959991)" fill="#0D3947"/>
<path d="M 103.279 40.262L 99.425 40.262C 99.8077 42.722 99.999 44.7447 99.999 46.33L 99.999 59.04L 87.863 59.04L 87.863 1.64L 99.999 1.64L 99.999 25.338C 99.999 28.0167 99.8077 30.4767 99.425 32.718L 103.197 32.718L 113.201 18.614L 126.813 18.614L 116.317 32.636C 115.442 34.112 114.185 35.3967 112.545 36.49L 112.545 36.654C 113.912 37.5833 115.169 39.032 116.317 41L 128.207 59.04L 114.595 59.04L 103.279 40.262Z" transform="translate(263.674 0.959991)" fill="#0D3947"/>
<path d="M 152.814 42.886L 138.218 42.886C 138.601 45.838 139.475 47.8333 140.842 48.872C 142.263 49.856 144.587 50.348 147.812 50.348C 152.131 50.348 157.16 50.0473 162.9 49.446L 164.048 56.99C 159.839 59.0127 153.962 60.024 146.418 60.024C 138.819 60.024 133.407 58.384 130.182 55.104C 126.957 51.824 125.344 46.412 125.344 38.868C 125.344 30.9413 126.902 25.3927 130.018 22.222C 133.189 19.0513 138.491 17.466 145.926 17.466C 152.65 17.466 157.515 18.6413 160.522 20.992C 163.529 23.288 165.059 26.814 165.114 31.57C 165.114 35.342 164.13 38.1847 162.162 40.098C 160.249 41.9567 157.133 42.886 152.814 42.886ZM 137.972 35.588L 149.452 35.588C 150.928 35.588 151.912 35.2327 152.404 34.522C 152.951 33.8113 153.224 32.7727 153.224 31.406C 153.224 29.4927 152.732 28.1807 151.748 27.47C 150.764 26.7047 148.96 26.322 146.336 26.322C 143.22 26.322 141.088 26.9507 139.94 28.208C 138.792 29.4107 138.136 31.8707 137.972 35.588Z" transform="translate(263.674 0.959991)" fill="#0D3947"/>
<path d="M 184.988 7.708C 188.542 3.49867 194.856 1.394 203.93 1.394C 213.005 1.394 219.319 3.49867 222.872 7.708C 226.426 11.8627 228.202 19.5433 228.202 30.75C 228.202 41.9567 226.426 49.6647 222.872 53.874C 219.319 58.0287 213.005 60.106 203.93 60.106C 194.856 60.106 188.542 58.0287 184.988 53.874C 181.49 49.6647 179.74 41.9567 179.74 30.75C 179.74 19.5433 181.49 11.8627 184.988 7.708ZM 212.622 15.498C 211.092 12.8193 208.194 11.48 203.93 11.48C 199.666 11.48 196.742 12.8193 195.156 15.498C 193.626 18.1767 192.86 23.2607 192.86 30.75C 192.86 38.2393 193.626 43.3233 195.156 46.002C 196.742 48.6807 199.666 50.02 203.93 50.02C 208.194 50.02 211.092 48.6807 212.622 46.002C 214.208 43.3233 215 38.2393 215 30.75C 215 23.2607 214.208 18.1767 212.622 15.498Z" transform="translate(263.674 0.959991)" fill="#0D3947"/>
<path d="M 244.159 1.64L 244.159 45.838C 244.159 48.5713 245.69 49.938 248.751 49.938L 252.031 49.938L 253.425 58.384C 251.348 59.4773 248.122 60.024 243.749 60.024C 240.141 60.024 237.298 59.0673 235.221 57.154C 233.144 55.186 232.105 52.4253 232.105 48.872L 232.105 1.64L 244.159 1.64Z" transform="translate(263.674 0.959991)" fill="#0D3947"/>
<path d="M 292.633 1.64L 292.633 59.04L 283.039 59.04L 282.055 53.136C 278.174 57.728 273.035 60.024 266.639 60.024C 261.61 60.024 257.947 58.22 255.651 54.612C 253.41 50.9493 252.289 45.5647 252.289 38.458C 252.289 30.6953 253.546 25.256 256.061 22.14C 258.576 19.024 262.484 17.466 267.787 17.466C 272.98 17.466 277.354 18.6687 280.907 21.074C 280.634 18.0673 280.497 15.252 280.497 12.628L 280.497 1.64L 292.633 1.64ZM 280.497 46.74L 280.497 28.044C 276.834 27.0053 273.964 26.486 271.887 26.486C 269.154 26.486 267.268 27.2513 266.229 28.782C 265.245 30.3127 264.753 33.5107 264.753 38.376C 264.753 43.0227 265.245 46.1387 266.229 47.724C 267.213 49.2547 268.962 50.02 271.477 50.02C 273.172 50.02 274.62 49.8013 275.823 49.364C 277.026 48.872 278.584 47.9973 280.497 46.74Z" transform="translate(263.674 0.959991)" fill="#0D3947"/>
<path d="M 326.561 8.856L 318.935 8.856C 316.912 8.856 315.491 9.23867 314.671 10.004C 313.905 10.7693 313.523 12.136 313.523 14.104L 313.523 18.614L 324.675 18.614L 324.675 26.732L 313.523 26.732L 313.523 59.04L 301.305 59.04L 301.305 26.732L 294.253 26.732L 294.253 19.024L 301.305 18.614L 301.305 12.464C 301.305 4.15467 305.733 0 314.589 0C 320.329 0 324.702 0.273336 327.709 0.820005L 326.561 8.856Z" transform="translate(263.674 0.959991)" fill="#0D3947"/>
<path d="M 329.537 0.738001L 334.949 0.738001C 337.3 0.738001 338.475 1.91333 338.475 4.264L 338.475 8.692C 338.475 11.0427 337.3 12.218 334.949 12.218L 329.537 12.218C 327.186 12.218 326.011 11.0427 326.011 8.692L 326.011 4.264C 326.011 1.91333 327.186 0.738001 329.537 0.738001ZM 338.311 59.04L 326.257 59.04L 326.257 18.614L 338.311 18.614L 338.311 59.04Z" transform="translate(263.674 0.959991)" fill="#0D3947"/>
<path d="M 369.419 42.886L 354.823 42.886C 355.206 45.838 356.08 47.8333 357.447 48.872C 358.868 49.856 361.192 50.348 364.417 50.348C 368.736 50.348 373.765 50.0473 379.505 49.446L 380.653 56.99C 376.444 59.0127 370.567 60.024 363.023 60.024C 355.424 60.024 350.012 58.384 346.787 55.104C 343.562 51.824 341.949 46.412 341.949 38.868C 341.949 30.9413 343.507 25.3927 346.623 22.222C 349.794 19.0513 355.096 17.466 362.531 17.466C 369.255 17.466 374.12 18.6413 377.127 20.992C 380.134 23.288 381.664 26.814 381.719 31.57C 381.719 35.342 380.735 38.1847 378.767 40.098C 376.854 41.9567 373.738 42.886 369.419 42.886ZM 354.577 35.588L 366.057 35.588C 367.533 35.588 368.517 35.2327 369.009 34.522C 369.556 33.8113 369.829 32.7727 369.829 31.406C 369.829 29.4927 369.337 28.1807 368.353 27.47C 367.369 26.7047 365.565 26.322 362.941 26.322C 359.825 26.322 357.693 26.9507 356.545 28.208C 355.397 29.4107 354.741 31.8707 354.577 35.588Z" transform="translate(263.674 0.959991)" fill="#0D3947"/>
<path d="M 396.772 1.64L 396.772 45.838C 396.772 48.5713 398.302 49.938 401.364 49.938L 404.644 49.938L 406.038 58.384C 403.96 59.4773 400.735 60.024 396.362 60.024C 392.754 60.024 389.911 59.0673 387.834 57.154C 385.756 55.186 384.718 52.4253 384.718 48.872L 384.718 1.64L 396.772 1.64Z" transform="translate(263.674 0.959991)" fill="#0D3947"/>
<path d="M 445.246 1.64L 445.246 59.04L 435.652 59.04L 434.668 53.136C 430.787 57.728 425.648 60.024 419.252 60.024C 414.223 60.024 410.56 58.22 408.264 54.612C 406.023 50.9493 404.902 45.5647 404.902 38.458C 404.902 30.6953 406.159 25.256 408.674 22.14C 411.189 19.024 415.097 17.466 420.4 17.466C 425.593 17.466 429.967 18.6687 433.52 21.074C 433.247 18.0673 433.11 15.252 433.11 12.628L 433.11 1.64L 445.246 1.64ZM 433.11 46.74L 433.11 28.044C 429.447 27.0053 426.577 26.486 424.5 26.486C 421.767 26.486 419.881 27.2513 418.842 28.782C 417.858 30.3127 417.366 33.5107 417.366 38.376C 417.366 43.0227 417.858 46.1387 418.842 47.724C 419.826 49.2547 421.575 50.02 424.09 50.02C 425.785 50.02 427.233 49.8013 428.436 49.364C 429.639 48.872 431.197 47.9973 433.11 46.74Z" transform="translate(263.674 0.959991)" fill="#0D3947"/>
</g>
</g>
</g>
</svg>

