<svg width="491" height="99" fill="none" xmlns="http://www.w3.org/2000/svg"><g filter="url(#filter0_d)" fill="#0D3947"><path d="M108 35.392V.456C112.27.152 116.384 0 120.343 0c5.027 0 8.54 1.333 10.536 4 2.032 2.633 3.047 7.274 3.047 13.924 0 6.65-1.015 11.308-3.047 13.975-1.997 2.633-5.509 3.95-10.536 3.95-3.89 0-8.005-.153-12.343-.457zm3.357-32.354V32.81c3.443.068 6.439.101 8.986.101 3.753 0 6.353-1.097 7.799-3.29 1.48-2.195 2.22-6.094 2.22-11.697 0-5.603-.74-9.502-2.22-11.696-1.446-2.228-4.046-3.342-7.799-3.342-.62 0-3.615.05-8.986.152zM138.683.557h1.498c.723 0 1.085.354 1.085 1.063v2.937c0 .709-.362 1.063-1.085 1.063h-1.498c-.723 0-1.084-.354-1.084-1.063V1.62c0-.709.361-1.063 1.084-1.063zm2.376 34.835h-3.254V10.886h3.254v24.506zM157.445 25.013l-7.643-1.418c-1.963-.371-3.392-1.063-4.287-2.076-.86-1.046-1.291-2.582-1.291-4.608 0-2.768.706-4.573 2.118-5.417 1.446-.878 3.942-1.3 7.488-1.266 3.788.067 7.196.32 10.226.76l-.31 2.329c-4.131-.203-7.3-.304-9.503-.304-2.754-.034-4.579.168-5.474.607-.895.405-1.343 1.502-1.343 3.291 0 1.384.293 2.346.878 2.886s1.567.946 2.944 1.216l7.695 1.417c1.997.405 3.46 1.114 4.39 2.127.93.979 1.395 2.464 1.395 4.456 0 2.869-.792 4.742-2.376 5.62-1.55.877-4.218 1.316-8.005 1.316-3.409 0-6.594-.219-9.555-.658l.258-2.38c2.72.237 5.63.338 8.729.304 3.064-.034 5.113-.304 6.145-.81 1.068-.54 1.602-1.67 1.602-3.392 0-1.317-.328-2.245-.982-2.785-.654-.54-1.687-.945-3.099-1.215zM186 32.658l.361 2.228c-2.548.743-5.268 1.114-8.16 1.114-4.304 0-7.334-.962-9.09-2.886-1.756-1.924-2.634-5.249-2.634-9.975s.878-8.05 2.634-9.974c1.756-1.958 4.786-2.937 9.09-2.937 3.064 0 5.63.371 7.695 1.114l-.516 2.076c-1.825-.27-4.046-.405-6.662-.405-3.306 0-5.613.725-6.921 2.177-1.274 1.418-1.91 4.067-1.91 7.95 0 3.881.636 6.53 1.91 7.949 1.308 1.417 3.615 2.126 6.92 2.126 2.893 0 5.32-.186 7.283-.557zM189.54 13.165c1.757-1.958 4.735-2.937 8.935-2.937s7.162.979 8.883 2.937c1.722 1.924 2.583 5.248 2.583 9.974s-.861 8.05-2.583 9.975c-1.721 1.924-4.682 2.886-8.883 2.886-4.2 0-7.178-.962-8.934-2.886-1.722-1.958-2.583-5.283-2.583-9.975 0-4.726.861-8.05 2.583-9.974zm15.236 2.025c-1.17-1.452-3.27-2.177-6.3-2.177s-5.13.725-6.302 2.177c-1.17 1.451-1.755 4.101-1.755 7.95 0 3.847.585 6.497 1.755 7.949 1.171 1.451 3.271 2.177 6.301 2.177 3.03 0 5.13-.726 6.301-2.177 1.17-1.452 1.756-4.102 1.756-7.95s-.585-6.498-1.756-7.95zM234.399 10.886l-9.555 23.696c-.206.54-.619.81-1.239.81h-3.047c-.62 0-1.033-.27-1.24-.81l-9.554-23.696h3.512l6.817 17.722c.206.506.482 1.265.826 2.278.379 1.013.654 1.722.827 2.127h.671l1.704-4.456 6.818-17.67h3.46zM250.182 24.709h-12.498c.206 3.24.964 5.468 2.272 6.683 1.308 1.216 3.443 1.823 6.404 1.823 2.582 0 5.457-.202 8.625-.607l.362 2.177c-2.135.81-5.286 1.215-9.452 1.215-4.2 0-7.196-.979-8.986-2.937-1.756-1.991-2.634-5.333-2.634-10.025 0-4.726.861-8.034 2.582-9.924 1.722-1.924 4.597-2.886 8.625-2.886 3.546 0 6.163.641 7.85 1.924 1.687 1.249 2.548 3.156 2.583 5.721.068 4.557-1.842 6.836-5.733 6.836zm-12.498-2.532h11.723c2.204 0 3.271-1.418 3.202-4.253-.034-1.721-.602-2.97-1.704-3.747-1.102-.776-2.858-1.164-5.268-1.164-2.927 0-4.975.675-6.146 2.025-1.17 1.316-1.773 3.696-1.807 7.14zM274 10.228l-.413 3.038h-1.24c-1.446 0-2.909.304-4.39.911-1.48.574-3.374 1.536-5.681 2.886v18.33h-3.305V10.885h2.531l.361 4.05c4.097-3.139 7.782-4.708 11.052-4.708H274zM189.877 47.842h9.043c2.255 0 3.424 1.166 3.506 3.5l1.66 38.86h-8.857l-1.415-35.055h-1.046l-6.397 26.214c-.41 2.006-1.681 3.009-3.814 3.009h-6.15c-2.133 0-3.405-1.003-3.815-3.009l-6.458-26.214h-1.046l-1.23 35.055H155l1.538-38.86c.123-2.334 1.292-3.5 3.506-3.5h9.042c2.01 0 3.24 1.002 3.691 3.008l5.167 21.119c.328 1.35.697 3.335 1.107 5.955h.8c.04-.205.184-1.044.43-2.518.287-1.473.513-2.619.677-3.437l5.106-21.12c.492-2.005 1.763-3.007 3.813-3.007zM210.308 46.553h4.06c1.763 0 2.644.88 2.644 2.64v3.315c0 1.76-.881 2.64-2.645 2.64h-4.06c-1.763 0-2.644-.88-2.644-2.64v-3.316c0-1.76.881-2.64 2.645-2.64zm6.581 43.649h-9.042V59.936h9.042v30.266zM232.475 76.143h-2.892c.287 1.842.431 3.356.431 4.543v9.516h-9.104V47.228h9.104V64.97c0 2.005-.144 3.847-.43 5.525h2.829l7.504-10.56h10.211l-7.873 10.499c-.656 1.105-1.6 2.067-2.83 2.885v.123c1.025.696 1.969 1.78 2.83 3.254l8.92 13.506h-10.212l-8.489-14.059z"/><path d="M269.633 78.108h-10.949c.287 2.21.943 3.704 1.968 4.481 1.066.737 2.809 1.105 5.229 1.105 3.239 0 7.012-.225 11.318-.675l.861 5.648c-3.157 1.514-7.566 2.272-13.225 2.272-5.7 0-9.76-1.228-12.18-3.684-2.419-2.455-3.629-6.507-3.629-12.155 0-5.935 1.17-10.09 3.507-12.463 2.378-2.374 6.356-3.56 11.933-3.56 5.044 0 8.694.88 10.949 2.64 2.256 1.718 3.404 4.358 3.445 7.919 0 2.824-.738 4.952-2.215 6.384-1.435 1.392-3.772 2.088-7.012 2.088zm-11.134-5.464h8.612c1.107 0 1.845-.266 2.214-.798.411-.532.616-1.31.616-2.333 0-1.433-.369-2.415-1.108-2.947-.738-.573-2.091-.86-4.059-.86-2.338 0-3.937.471-4.798 1.413-.862.9-1.354 2.742-1.477 5.525zM293.768 51.77c2.666-3.15 7.402-4.726 14.21-4.726 6.807 0 11.543 1.575 14.209 4.727 2.665 3.11 3.998 8.86 3.998 17.25 0 8.391-1.333 14.162-3.998 17.313-2.666 3.11-7.402 4.666-14.209 4.666-6.808 0-11.544-1.555-14.21-4.666-2.624-3.151-3.936-8.922-3.936-17.312s1.312-14.14 3.936-17.251zm20.73 5.833c-1.148-2.005-3.322-3.008-6.52-3.008-3.199 0-5.393 1.003-6.582 3.008-1.148 2.005-1.722 5.812-1.722 11.419s.574 9.413 1.722 11.419c1.189 2.005 3.383 3.008 6.582 3.008 3.198 0 5.372-1.003 6.52-3.008 1.189-2.006 1.784-5.812 1.784-11.42 0-5.606-.595-9.413-1.784-11.418zM338.155 47.228v33.09c0 2.046 1.148 3.07 3.445 3.07h2.46l1.046 6.323c-1.558.818-3.978 1.228-7.258 1.228-2.707 0-4.839-.717-6.398-2.15-1.558-1.472-2.337-3.54-2.337-6.2V47.228h9.042zM374.518 47.228v42.974h-7.197l-.738-4.42c-2.912 3.438-6.767 5.157-11.564 5.157-3.773 0-6.521-1.351-8.243-4.052-1.681-2.742-2.522-6.774-2.522-12.094 0-5.812.943-9.884 2.829-12.217 1.887-2.333 4.819-3.5 8.797-3.5 3.895 0 7.176.9 9.842 2.702a69.962 69.962 0 0 1-.308-6.324v-8.226h9.104zm-9.104 33.765V66.996c-2.747-.778-4.9-1.166-6.459-1.166-2.05 0-3.465.573-4.244 1.718-.738 1.146-1.107 3.54-1.107 7.183 0 3.48.369 5.812 1.107 6.999.738 1.146 2.05 1.719 3.937 1.719 1.271 0 2.358-.164 3.26-.491.902-.369 2.071-1.023 3.506-1.965zM399.968 52.63h-5.72c-1.517 0-2.584.287-3.199.86-.574.573-.861 1.596-.861 3.07v3.376h8.366v6.078h-8.366v24.188h-9.165V66.014h-5.29v-5.771l5.29-.307v-4.604c0-6.221 3.321-9.332 9.965-9.332 4.306 0 7.586.205 9.842.614l-.862 6.016z"/><path d="M402.201 46.553h4.06c1.763 0 2.645.88 2.645 2.64v3.315c0 1.76-.882 2.64-2.645 2.64h-4.06c-1.763 0-2.645-.88-2.645-2.64v-3.316c0-1.76.882-2.64 2.645-2.64zm6.582 43.649h-9.042V59.936h9.042v30.266zM432.119 78.108h-10.95c.288 2.21.944 3.704 1.969 4.481 1.066.737 2.809 1.105 5.228 1.105 3.24 0 7.013-.225 11.319-.675l.861 5.648c-3.158 1.514-7.566 2.272-13.225 2.272-5.7 0-9.76-1.228-12.18-3.684-2.419-2.455-3.629-6.507-3.629-12.155 0-5.935 1.169-10.09 3.506-12.463 2.379-2.374 6.357-3.56 11.934-3.56 5.044 0 8.693.88 10.949 2.64 2.255 1.718 3.403 4.358 3.444 7.919 0 2.824-.738 4.952-2.214 6.384-1.435 1.392-3.773 2.088-7.012 2.088zm-11.134-5.464h8.612c1.107 0 1.845-.266 2.214-.798.41-.532.615-1.31.615-2.333 0-1.433-.369-2.415-1.107-2.947-.738-.573-2.091-.86-4.06-.86-2.337 0-3.937.471-4.798 1.413-.861.9-1.353 2.742-1.476 5.525zM452.637 47.228v33.09c0 2.046 1.148 3.07 3.445 3.07h2.46l1.046 6.323c-1.558.818-3.978 1.228-7.258 1.228-2.707 0-4.839-.717-6.398-2.15-1.558-1.472-2.337-3.54-2.337-6.2V47.228h9.042zM489 47.228v42.974h-7.197l-.738-4.42c-2.912 3.438-6.766 5.157-11.564 5.157-3.773 0-6.521-1.351-8.243-4.052-1.681-2.742-2.522-6.774-2.522-12.094 0-5.812.943-9.884 2.83-12.217 1.886-2.333 4.818-3.5 8.796-3.5 3.896 0 7.176.9 9.842 2.702a69.962 69.962 0 0 1-.308-6.324v-8.226H489zm-9.104 33.765V66.996c-2.747-.778-4.9-1.166-6.459-1.166-2.05 0-3.465.573-4.244 1.718-.738 1.146-1.107 3.54-1.107 7.183 0 3.48.369 5.812 1.107 6.999.738 1.146 2.051 1.719 3.937 1.719 1.271 0 2.358-.164 3.26-.491.902-.369 2.071-1.023 3.506-1.965z"/></g><path fill-rule="evenodd" clip-rule="evenodd" d="M92 13.902a49.184 49.184 0 0 0-27.91-8.637c-27.381 0-49.579 22.305-49.579 49.819 0 14.11 5.839 26.852 15.22 35.916-13.081-8.969-21.67-24.067-21.67-41.181C8.062 22.304 30.26 0 57.642 0 70.98 0 83.088 5.293 92 13.902z" fill="white"/><path d="M30.032 9.88l-3.264 9.3 8.533 7.18-10.55-1.432-3.264 9.3-3.256-10.185-10.55-1.431 8.538-4.863-3.256-10.184 8.532 7.179 8.537-4.863z" fill="white"/><path d="M36.89 19.846c0 8.4-6.776 15.202-15.123 15.202-8.348 0-15.124-6.802-15.124-15.202s6.776-15.2 15.124-15.2 15.123 6.8 15.123 15.2zM0 20.061h41.921M21.96 0v42.123" stroke="white" stroke-width="2"/><defs><filter id="filter0_d" x="102" y="0" width="389" height="99" filterUnits="userSpaceOnUse" color-interpolation-filters="sRGB"><feFlood flood-opacity="0" result="BackgroundImageFix"/><feColorMatrix in="SourceAlpha" values="0 0 0 0 0 0 0 0 0 0 0 0 0 0 0 0 0 0 255 0"/><feOffset dx="-2" dy="4"/><feGaussianBlur stdDeviation="2"/><feColorMatrix values="0 0 0 0 0.0509804 0 0 0 0 0.223529 0 0 0 0 0.278431 0 0 0 0.25 0"/><feBlend in2="BackgroundImageFix" result="effect1_dropShadow"/><feBlend in="SourceGraphic" in2="effect1_dropShadow" result="shape"/></filter></defs></svg>